<svg xmlns="http://www.w3.org/2000/svg" data-name="Layer 1" viewBox="0 0 64 64" id="web-dashboard"><path fill="#cfdee7" d="M60.55 6H3.45A2.45 2.45 0 0 0 1 8.48v47A2.46 2.46 0 0 0 3.45 58h57.1A2.46 2.46 0 0 0 63 55.52v-47A2.45 2.45 0 0 0 60.55 6Z"></path><path fill="#e9633b" d="M63 8.48v6.19H1V8.48A2.45 2.45 0 0 1 3.45 6h57.1A2.45 2.45 0 0 1 63 8.48Z"></path><path fill="#fff" d="M3 10h22v2H3zM55 10h2v2h-2zM47 10h2v2h-2z"></path><path fill="#ff99a0" d="M45 37a13 13 0 1 1-13-13v13Z"></path><path fill="#fcbf49" d="M49 34H35V20a14 14 0 0 1 14 14Z"></path></svg>